<svg width="24" height="24" viewBox="0 0 24 24" fill="none" xmlns="http://www.w3.org/2000/svg">
<path d="M14.998 19.0002C14.998 20.1048 15.8934 21.0002 16.998 21.0002C18.1026 21.0002 18.998 20.1048 18.998 19.0002C18.998 17.8957 18.1026 17.0002 16.998 17.0002H7.36524C6.86759 17.0002 6.44567 16.6343 6.37529 16.1416M17.998 14.0002H6.06937L4.49794 3.00015H1.99792M8.99796 5.00016H20.998L18.998 11.0002M10.998 19.0002C10.998 20.1048 10.1025 21.0002 8.99796 21.0002C7.89338 21.0002 6.99795 20.1048 6.99795 19.0002C6.99795 17.8957 7.89338 17.0002 8.99796 17.0002C10.1025 17.0002 10.998 17.8957 10.998 19.0002Z" stroke="#262525" stroke-width="1.45589" stroke-linecap="round" stroke-linejoin="round"/>
</svg>
