<?xml version="1.0" encoding="UTF-8"?>
<!-- Uploaded to: SVG Find, www.svgrepo.com, Generator: SVG Find Mixer Tools -->
<svg width="800px" height="800px" version="1.1" viewBox="144 144 512 512" xmlns="http://www.w3.org/2000/svg">
 <defs>
  <clipPath id="a">
   <path d="m150 148.09h500v503.81h-500z"/>
  </clipPath>
 </defs>
 <g clip-path="url(#a)">
  <path d="m493.22 340.41c-2.2031 0.007812-4.125-1.2188-5.1055-3.0312-0.47656 0.26172-0.95703 0.51172-1.4414 0.75-3.8789 1.8945-8.1094 3.0195-12.43 3.3047-0.28906 4.3047-1.418 8.5312-3.3164 12.414l0.019531 0.007812c-2.8008 5.7344-7.2891 10.727-13.234 14.164-5.9492 3.4336-12.512 4.8242-18.871 4.3828-4.3125-0.29688-8.543-1.4414-12.43-3.3555-2.4062 3.5859-5.5 6.6836-9.0898 9.1055l0.007813 0.011718c-5.3047 3.5742-11.691 5.6602-18.547 5.6602s-13.238-2.0859-18.547-5.6602c-3.5859-2.4141-6.6797-5.5156-9.0859-9.1133-3.8867 1.9141-8.1172 3.0547-12.426 3.3555-6.3594 0.44141-12.922-0.94922-18.875-4.3867-5.9492-3.4336-10.434-8.4258-13.234-14.16-1.8945-3.8789-3.0195-8.1094-3.3047-12.43-3.5469-0.23828-7.0352-1.0469-10.328-2.3867-0.98047 0.76953-2.2188 1.2305-3.5625 1.2305l-104.01-0.31641v0.023437c-5.9297 0-11.574 1.1797-16.715 3.3125-5.1719 2.1484-9.8438 5.2539-13.785 9.0859-0.13672 0.17188-0.28516 0.33984-0.44531 0.5-4.0469 4.0547-7.3164 8.8906-9.5508 14.25-2.1328 5.125-3.3125 10.75-3.3125 16.652v49.355h476.8v-49.355c0-5.9258-1.1797-11.574-3.3125-16.707-2.1797-5.2461-5.3438-9.9805-9.2539-13.969l-0.28906-0.26953c-4.0586-4.0586-8.8906-7.3242-14.234-9.5469-5.1367-2.1328-10.785-3.3125-16.719-3.3125v-0.023437l-101.37 0.45312zm-56.941-64.453c6.5195 0 12.43 2.6641 16.719 6.9688 4.2773 4.2969 6.9258 10.219 6.9258 16.746 0 6.5273-2.6484 12.453-6.9258 16.746-4.2891 4.3047-10.199 6.9688-16.719 6.9688-6.5156 0-12.43-2.6641-16.719-6.9688-4.2773-4.2969-6.9258-10.219-6.9258-16.746 0-6.5273 2.6484-12.453 6.9258-16.746 4.2891-4.3047 10.199-6.9688 16.719-6.9688zm8.5195 15.125c-2.168-2.1797-5.1797-3.5273-8.5195-3.5273s-6.3477 1.3477-8.5195 3.5273c-2.1797 2.1875-3.5273 5.2266-3.5273 8.5938s1.3477 6.4062 3.5273 8.5938c2.168 2.1797 5.1797 3.5273 8.5195 3.5273 3.3359 0 6.3477-1.3477 8.5195-3.5273 2.1797-2.1875 3.5273-5.2266 3.5273-8.5938s-1.3477-6.4062-3.5273-8.5938zm-85.051-83.152c6.5156 0 12.43 2.6641 16.719 6.9688 4.2773 4.2969 6.9258 10.219 6.9258 16.746s-2.6484 12.453-6.9258 16.746c-4.2891 4.3047-10.199 6.9688-16.719 6.9688-6.5156 0-12.43-2.6641-16.719-6.9688-4.2773-4.2969-6.9258-10.219-6.9258-16.746s2.6484-12.453 6.9258-16.746c4.2891-4.3047 10.199-6.9688 16.719-6.9688zm8.5195 15.125c-2.168-2.1797-5.1797-3.5273-8.5195-3.5273s-6.3477 1.3477-8.5195 3.5273c-2.1797 2.1875-3.5273 5.2266-3.5273 8.5938 0 3.3672 1.3477 6.4062 3.5273 8.5938 2.168 2.1797 5.1797 3.5273 8.5195 3.5273 3.3359 0 6.3477-1.3477 8.5195-3.5273 2.1797-2.1875 3.5273-5.2266 3.5273-8.5938 0-3.3672-1.3477-6.4062-3.5273-8.5938zm-6.6172 95.852c-2.0625 2.4375-5.7148 2.7422-8.1523 0.67969s-2.7422-5.7148-0.67969-8.1523l83-98.441c2.0625-2.4375 5.7148-2.7422 8.1523-0.67969s2.7422 5.7148 0.67969 8.1523zm136.52 9.9336 96.418-0.42969v-0.023438c7.4648 0 14.613 1.5039 21.156 4.2188 6.793 2.8203 12.898 6.9375 17.996 12.039 0.10937 0.10938 0.21094 0.22266 0.3125 0.33594 4.9609 5.043 8.9688 11.031 11.723 17.66 2.7148 6.5391 4.2188 13.688 4.2188 21.145v206.64c0 8.2812-1.668 16.215-4.6836 23.473-3.1172 7.5-7.6875 14.266-13.359 19.941l-0.027344 0.027343c-5.6797 5.6719-12.445 10.246-19.938 13.359-7.2578 3.0156-15.188 4.6797-23.469 4.6797h-383.11c-7.4648 0-14.609-1.5039-21.152-4.2188-6.7539-2.8047-12.852-6.9258-17.965-12.039l-0.027343-0.027343c-5.1094-5.1094-9.2305-11.203-12.035-17.957-2.7188-6.543-4.2227-13.691-4.2227-21.156v-212.72c0-7.4414 1.5039-14.566 4.2188-21.094 2.707-6.5 6.6211-12.387 11.461-17.375 0.26562-0.36328 0.57812-0.69922 0.92188-0.99219 5.0508-4.9648 11.035-8.9727 17.648-11.723 6.543-2.7188 13.688-4.2188 21.152-4.2188v0.023438l93.863 0.28516c-0.92188-1.1914-1.7773-2.457-2.5508-3.7969-3.4336-5.9492-4.8242-12.512-4.3828-18.871 0.29687-4.3125 1.4414-8.543 3.3555-12.43-3.5859-2.4062-6.6836-5.5-9.1055-9.0898l-0.011719 0.007812c-3.5742-5.3047-5.6602-11.691-5.6602-18.547 0-6.8555 2.0859-13.238 5.6602-18.547 2.4141-3.5859 5.5156-6.6797 9.1133-9.0859-1.9141-3.8867-3.0547-8.1172-3.3555-12.426-0.44141-6.3594 0.94922-12.922 4.3867-18.875 3.4336-5.9492 8.4258-10.434 14.16-13.234 3.8789-1.8945 8.1094-3.0195 12.43-3.3047 0.28906-4.3047 1.418-8.5312 3.3164-12.414l-0.019531-0.007813c2.8008-5.7344 7.2891-10.727 13.234-14.164 5.9492-3.4336 12.512-4.8242 18.871-4.3828 4.3125 0.29688 8.543 1.4414 12.43 3.3555 2.4062-3.5859 5.5-6.6836 9.0898-9.1055l-0.007813-0.011719c5.3047-3.5742 11.691-5.6602 18.547-5.6602 6.8398 0 13.215 2.0859 18.523 5.6602 3.5977 2.4219 6.6953 5.5234 9.1055 9.1133 3.8906-1.9141 8.1172-3.0586 12.43-3.3555 6.3594-0.44141 12.922 0.94922 18.875 4.3867 5.9492 3.4336 10.434 8.4297 13.234 14.164 1.8945 3.8789 3.0195 8.1055 3.3047 12.43 4.3047 0.28906 8.5312 1.418 12.414 3.3164l0.007812-0.019531c5.7344 2.8008 10.727 7.2891 14.164 13.234 3.4336 5.9492 4.8242 12.512 4.3828 18.871-0.29688 4.3125-1.4414 8.543-3.3555 12.43 3.5859 2.4062 6.6836 5.5 9.1055 9.0898l0.011718-0.007813c3.5742 5.3047 5.6602 11.691 5.6602 18.547s-2.0859 13.238-5.6602 18.547c-2.4141 3.5859-5.5156 6.6758-9.1133 9.0859 1.9141 3.8867 3.0547 8.1172 3.3555 12.426 0.44141 6.3594-0.94922 12.922-4.3867 18.875-0.80469 1.3945-1.6992 2.7109-2.6641 3.9414zm-58.566-157.77c-4.1602 0.28906-8.1875 1.7656-11.543 4.2852-0.48047 0.42969-1.043 0.78516-1.6758 1.0391-2.9648 1.1992-6.3438-0.23047-7.543-3.1953-1.6367-4.0312-4.4414-7.457-7.9805-9.8398-3.4375-2.3125-7.5977-3.6641-12.09-3.6641-4.4805 0-8.6328 1.3516-12.07 3.668l-0.007813-0.011719-0.015624 0.011719c-3.5391 2.3828-6.3438 5.8086-7.9805 9.8398l-0.011719-0.003907c-0.19531 0.48438-0.46484 0.95313-0.80078 1.3867-1.9648 2.5156-5.5938 2.9609-8.1094 0.99609-3.4141-2.6562-7.5508-4.2109-11.836-4.5078-4.1562-0.28906-8.4375 0.61328-12.301 2.8438-3.8672 2.2344-6.7891 5.4883-8.6133 9.2227l-0.019532-0.007813-0.003906 0.007813c-1.8672 3.8203-2.5859 8.1602-2.0078 12.445 0.082031 0.53906 0.089844 1.1016 0.011718 1.6719-0.4375 3.1641-3.3594 5.375-6.5234 4.9375-4.293-0.59375-8.6641 0.12891-12.531 2.0195-3.7383 1.8281-6.9883 4.7461-9.2227 8.6133-2.2305 3.8672-3.1328 8.1445-2.8438 12.305 0.28906 4.1602 1.7656 8.1875 4.2852 11.543 0.42969 0.48047 0.78516 1.043 1.0391 1.6758 1.1992 2.9648-0.23047 6.3438-3.1953 7.543-4.0195 1.6289-7.4414 4.4414-9.8398 8-2.3164 3.4375-3.6641 7.5898-3.6641 12.07 0 4.4805 1.3516 8.6328 3.668 12.07l-0.011719 0.007812 0.011719 0.015626c2.3828 3.5391 5.8086 6.3438 9.8398 7.9805l-0.003906 0.011719c0.48438 0.19531 0.95312 0.46484 1.3867 0.80078 2.5156 1.9648 2.9609 5.5938 0.99609 8.1094-2.6562 3.4141-4.2109 7.5508-4.5078 11.836-0.28906 4.1562 0.61328 8.4375 2.8438 12.301 2.2344 3.8672 5.4883 6.7891 9.2227 8.6133l-0.007812 0.019531 0.007812 0.003907c3.8203 1.8672 8.1602 2.5859 12.445 2.0078 0.53906-0.082031 1.1016-0.089843 1.6719-0.011719 3.1641 0.4375 5.375 3.3594 4.9375 6.5234-0.59375 4.293 0.12891 8.6641 2.0195 12.531 1.8281 3.7383 4.7461 6.9883 8.6133 9.2227 3.8672 2.2305 8.1445 3.1328 12.305 2.8438 4.1602-0.28906 8.1875-1.7656 11.543-4.2852 0.48047-0.42969 1.043-0.78516 1.6758-1.0391 2.9648-1.1992 6.3438 0.23047 7.543 3.1953 1.6289 4.0195 4.4414 7.4414 8 9.8398 3.4375 2.3164 7.5898 3.6641 12.07 3.6641s8.6328-1.3516 12.07-3.668l0.007813 0.011718 0.015625-0.011718c3.5391-2.3828 6.3438-5.8086 7.9805-9.8398l0.011719 0.003906c0.19531-0.48438 0.46484-0.95312 0.80078-1.3867 1.9648-2.5156 5.5938-2.9609 8.1094-0.99609 3.4141 2.6562 7.5508 4.2109 11.836 4.5078 4.1562 0.28906 8.4375-0.61328 12.301-2.8438 3.8672-2.2344 6.7891-5.4883 8.6133-9.2227l0.019531 0.007812 0.003906-0.007812c1.8672-3.8203 2.5859-8.1602 2.0078-12.445-0.082032-0.53906-0.089844-1.1016-0.011719-1.6719 0.4375-3.1641 3.3594-5.375 6.5234-4.9375 4.293 0.59375 8.6641-0.12891 12.531-2.0195 3.7383-1.8281 6.9883-4.7461 9.2227-8.6133 2.2305-3.8672 3.1328-8.1445 2.8438-12.305-0.28906-4.1602-1.7656-8.1875-4.2852-11.543-0.42969-0.48047-0.78516-1.043-1.0391-1.6758-1.1992-2.9648 0.23047-6.3438 3.1953-7.543 4.0195-1.6289 7.4414-4.4414 9.8398-8 2.3164-3.4375 3.6641-7.5898 3.6641-12.07s-1.3516-8.6328-3.668-12.07l0.011719-0.007812-0.011719-0.015625c-2.3828-3.5391-5.8086-6.3438-9.8398-7.9805l0.003906-0.011718c-0.48437-0.19531-0.95312-0.46484-1.3867-0.80078-2.5156-1.9648-2.9609-5.5938-0.99609-8.1094 2.6562-3.4141 4.2109-7.5508 4.5078-11.836 0.28906-4.1562-0.61328-8.4375-2.8438-12.301-2.2344-3.8672-5.4883-6.7891-9.2227-8.6133l0.007813-0.019531-0.007813-0.003906c-3.8203-1.8672-8.1602-2.5859-12.445-2.0078-0.53906 0.082031-1.1016 0.089844-1.6719 0.011719-3.1641-0.4375-5.375-3.3594-4.9375-6.5234 0.59766-4.293-0.12891-8.6641-2.0195-12.531-1.8281-3.7383-4.7461-6.9922-8.6133-9.2227-3.8672-2.2344-8.1484-3.1328-12.305-2.8477zm-278 273.67v151.77c0 5.9336 1.1797 11.582 3.3164 16.719 2.2305 5.3672 5.4883 10.195 9.5234 14.227l0.023438 0.023437c4.0312 4.0352 8.8594 7.2969 14.227 9.5234 5.1367 2.1367 10.785 3.3125 16.715 3.3125h383.11c6.75 0 13.176-1.3438 19.027-3.7734 6.1094-2.5391 11.609-6.25 16.207-10.848l0.023438-0.023438c4.5938-4.5898 8.3047-10.09 10.844-16.203 2.4336-5.8516 3.7773-12.285 3.7773-19.035v-145.69zm286.25 109.88c-3.2031 0-5.7969-2.5977-5.7969-5.7969 0-3.2031 2.5977-5.7969 5.7969-5.7969h129.05c3.2031 0 5.7969 2.5977 5.7969 5.7969 0 3.2031-2.5977 5.7969-5.7969 5.7969zm-250-158.29c-3.1914 0-5.7773-2.5859-5.7773-5.7773 0-3.1914 2.5859-5.7773 5.7773-5.7773l406.92-0.86719c3.1914 0 5.7773 2.5859 5.7773 5.7773 0 3.1914-2.5859 5.7773-5.7773 5.7773z"/>
 </g>
</svg>