<?xml version="1.0" encoding="iso-8859-1"?>
<!-- Uploaded to: SVG Repo, www.svgrepo.com, Generator: SVG Repo Mixer Tools -->
<svg fill="#000000" height="800px" width="800px" version="1.1" id="Layer_1" xmlns="http://www.w3.org/2000/svg" xmlns:xlink="http://www.w3.org/1999/xlink" 
	 viewBox="0 0 475.071 475.071" xml:space="preserve">
<g transform="translate(0 -540.36)">
	<g>
		<g>
			<path d="M284.418,798.801c-14.2,0-25.8,11.6-25.8,25.8s11.6,25.8,25.8,25.8s25.8-11.6,25.8-25.8S298.618,798.801,284.418,798.801
				z M284.418,835.501c-6,0-10.8-4.9-10.8-10.8c0-6,4.9-10.8,10.8-10.8c5.9,0,10.8,4.8,10.8,10.8S290.318,835.501,284.418,835.501z"
				/>
			<path d="M191.018,757.101c14.2,0,25.7-11.5,25.8-25.8c0-14.2-11.6-25.8-25.8-25.8c-14.2,0-25.8,11.6-25.8,25.8
				S176.818,757.101,191.018,757.101z M191.018,720.601c5.9,0,10.7,4.9,10.8,10.8c0,6-4.9,10.8-10.8,10.8c-6,0-10.8-4.9-10.8-10.8
				C180.218,725.401,185.118,720.601,191.018,720.601z"/>
			<path d="M474.918,736.001c-0.6-2.8-2.7-5.1-5.5-5.8l-77.8-19.8l23.1-69.3c0.9-2.6,0.2-5.5-1.6-7.5c-1.9-2-4.6-2.8-7.3-2.2
				l-79.8,19.4l-25-70.5c-0.9-2.4-2.9-4.2-5.4-4.8s-5.1,0.1-6.9,1.9l-54.6,53.1l-66.5-48.3c-2.1-1.5-4.8-1.9-7.2-0.9
				c-2.4,0.9-4.1,3.1-4.6,5.6l-12.7,69.2l-85.6-10.8c-2.8-0.3-5.5,0.9-7.1,3.2c-1.6,2.3-1.8,5.3-0.5,7.8l32.7,62.5l-77.8,30.4
				c-2.8,1.1-4.6,3.6-4.8,6.5c-0.2,2.9,1.3,5.7,3.8,7.1l68,37.8l-45.4,60.7c-1.7,2.2-2,5.3-0.7,7.8c1.3,2.6,3.9,4.2,6.7,4.2
				l82.9,0.7v72.5c0,2.6,1.4,5,3.7,6.4s5.1,1.5,7.4,0.2l70.6-38.1l47.5,62.5c1.5,1.9,3.7,3,6,3v0c0.2,0,0.4,0,0.3-0.3
				c2.5-0.2,4.8-1.7,6-3.9l35-64.1l79.5,31c2.5,1,5.3,0.6,7.4-1.1c2.1-1.7,3.1-4.4,2.7-7l-10.5-68.5l85-10.7c2.9-0.3,5.3-2.3,6.2-5
				c0.9-2.7,0.2-5.7-1.8-7.7l-52.2-52.1l63.9-47.6C474.318,741.701,475.518,738.801,474.918,736.001z M392.418,784.501
				c-1.7,1.3-2.8,3.3-3,5.5c-0.1,2.1,0.7,4.3,2.2,5.8l47.5,47.4l-77.4,9.7c-2,0.2-3.8,1.3-5,2.9c-1.2,1.7-1.7,3.7-1.4,5.7l9.7,63.3
				l-73.5-28.7c-3.5-1.4-7.5,0.1-9.3,3.4l-32.6,59.8l-44.4-58.4c-1.5-2-3.7-3-6-3l0,0c-1.2,0-2.5,0.3-3.6,0.9l-65.2,35.2v-67.5
				c0-4.1-3.3-7.5-7.4-7.5l-75.5-0.6l41.7-55.7c1.3-1.8,1.8-4,1.3-6.1s-1.8-3.9-3.7-5l-61.6-34.2l70.8-27.6c2-0.8,3.6-2.4,4.3-4.4
				s0.6-4.2-0.4-6.1l-29.9-57.2l78.4,9.9c3.9,0.5,7.6-2.2,8.3-6.1l12-64.4l62,45.1c2.9,2.1,7,1.8,9.6-0.7l50.8-49.3l23.3,65.9
				c1.2,3.6,5.1,5.7,8.8,4.8l73.2-17.8l-21.4,64c-0.7,2-0.5,4.2,0.5,6c1,1.9,2.7,3.2,4.7,3.7l70.4,17.9L392.418,784.501z"/>
			<path d="M302.418,702.801l-140.1,139.8c-2.9,2.9-2.9,7.7,0,10.6c1.5,1.5,3.4,2.2,5.3,2.2c2,0,3.9-0.7,5.3-2.2l140.1-139.8
				c2.9-2.9,2.9-7.7,0-10.6C310.118,699.901,305.318,699.901,302.418,702.801z"/>
		</g>
	</g>
</g>
</svg>